<?xml version="1.0" standalone="no"?>
<!DOCTYPE svg PUBLIC "-//W3C//DTD SVG 20010904//EN"
 "http://www.w3.org/TR/2001/REC-SVG-20010904/DTD/svg10.dtd">
<svg version="1.0" xmlns="http://www.w3.org/2000/svg"
 width="280.000000pt" height="280.000000pt" viewBox="0 0 280.000000 280.000000"
 preserveAspectRatio="xMidYMid meet">
<metadata>
Created by potrace 1.14, written by Peter Selinger 2001-2017
</metadata>
<g transform="translate(0.000000,280.000000) scale(0.100000,-0.100000)"
fill="#000000" stroke="none">
<path d="M1776 2717 c-40 -40 -77 -83 -81 -96 -5 -18 4 -47 41 -119 27 -52 57
-100 66 -106 12 -7 44 -6 110 3 144 21 152 26 163 117 4 27 10 66 15 87 9 40
3 76 -14 92 -23 22 -177 95 -201 95 -18 0 -47 -21 -99 -73z"/>
<path d="M1737 2339 c-3 -11 2 -48 12 -83 9 -34 15 -68 13 -74 -6 -18 -39 -15
-174 17 -184 44 -183 44 -202 26 -12 -12 -15 -30 -11 -73 16 -198 16 -252 2
-257 -7 -3 -61 6 -118 20 -117 30 -137 32 -155 13 -37 -39 -37 -168 1 -290 8
-29 10 -48 4 -48 -5 0 -35 28 -67 61 -149 161 -325 129 -376 -67 -33 -124 -87
-257 -133 -326 -28 -43 -77 -96 -133 -143 -106 -90 -150 -141 -184 -215 -23
-48 -26 -68 -26 -166 0 -117 10 -163 58 -263 47 -101 130 -149 255 -149 44 0
82 -4 87 -9 4 -4 15 -37 25 -73 23 -84 61 -163 96 -202 l29 -30 111 7 c61 3
120 8 132 10 12 2 63 6 112 10 50 3 108 8 130 10 22 2 76 7 120 10 44 3 100 8
125 10 91 8 177 15 255 20 44 4 96 8 115 10 19 2 76 7 125 10 158 11 170 15
196 67 17 33 51 151 83 289 5 21 14 28 43 34 49 8 178 52 224 76 35 17 36 20
48 101 6 46 14 103 16 128 4 47 13 107 20 150 14 80 15 98 5 141 -15 62 -60
113 -126 146 -97 48 -153 132 -178 266 -17 96 -42 139 -114 195 -144 111 -377
95 -551 -40 l-45 -34 -80 34 c-106 46 -186 49 -239 9 -20 -15 -39 -36 -42 -47
-6 -20 -20 -26 -28 -12 -3 4 -8 34 -11 67 -4 33 -9 71 -11 85 -20 114 -17 118
56 100 24 -6 72 -14 106 -17 59 -5 64 -4 93 25 25 26 34 51 32 92 0 3 -3 53
-7 113 -6 107 -6 107 17 108 27 2 14 4 157 -32 109 -28 190 -37 192 -21 7 39
6 65 -2 112 -20 107 -26 120 -54 120 -14 0 -25 -7 -28 -21z"/>
</g>
</svg>
